<mxfile host="app.diagrams.net" agent="Mozilla/5.0 (Windows NT 10.0; Win64; x64) AppleWebKit/537.36 (KHTML, like Gecko) Chrome/128.0.0.0 Safari/537.36" version="24.7.8">
  <diagram name="Página-1" id="3fKgyCRNdXEo-sG83wbw">
    <mxGraphModel dx="2620" dy="2144" grid="1" gridSize="10" guides="1" tooltips="1" connect="1" arrows="1" fold="1" page="1" pageScale="1" pageWidth="827" pageHeight="1169" math="0" shadow="0">
      <root>
        <mxCell id="0" />
        <mxCell id="1" parent="0" />
        <mxCell id="0Htg_YeX03-Z4FgR897Y-5" style="edgeStyle=orthogonalEdgeStyle;rounded=0;orthogonalLoop=1;jettySize=auto;html=1;entryX=0;entryY=0.5;entryDx=0;entryDy=0;" parent="1" source="WMqTVKStwHXneMCG5cs7-1" edge="1">
          <mxGeometry relative="1" as="geometry">
            <mxPoint x="380.00000000001637" y="280" as="targetPoint" />
          </mxGeometry>
        </mxCell>
        <mxCell id="0Htg_YeX03-Z4FgR897Y-8" style="edgeStyle=orthogonalEdgeStyle;rounded=0;orthogonalLoop=1;jettySize=auto;html=1;entryX=0;entryY=0.5;entryDx=0;entryDy=0;" parent="1" source="WMqTVKStwHXneMCG5cs7-1" target="0Htg_YeX03-Z4FgR897Y-7" edge="1">
          <mxGeometry relative="1" as="geometry" />
        </mxCell>
        <mxCell id="0Htg_YeX03-Z4FgR897Y-11" style="edgeStyle=orthogonalEdgeStyle;rounded=0;orthogonalLoop=1;jettySize=auto;html=1;entryX=0;entryY=0.5;entryDx=0;entryDy=0;" parent="1" source="WMqTVKStwHXneMCG5cs7-1" target="0Htg_YeX03-Z4FgR897Y-10" edge="1">
          <mxGeometry relative="1" as="geometry" />
        </mxCell>
        <mxCell id="BUD-_ATp-OeyGyNqLpjo-17" style="edgeStyle=orthogonalEdgeStyle;rounded=0;orthogonalLoop=1;jettySize=auto;html=1;entryX=0;entryY=0.5;entryDx=0;entryDy=0;" parent="1" source="WMqTVKStwHXneMCG5cs7-1" target="BUD-_ATp-OeyGyNqLpjo-9" edge="1">
          <mxGeometry relative="1" as="geometry" />
        </mxCell>
        <mxCell id="BUD-_ATp-OeyGyNqLpjo-19" style="edgeStyle=orthogonalEdgeStyle;rounded=0;orthogonalLoop=1;jettySize=auto;html=1;entryX=0;entryY=0.5;entryDx=0;entryDy=0;" parent="1" source="WMqTVKStwHXneMCG5cs7-1" target="BUD-_ATp-OeyGyNqLpjo-12" edge="1">
          <mxGeometry relative="1" as="geometry" />
        </mxCell>
        <mxCell id="BUD-_ATp-OeyGyNqLpjo-20" style="edgeStyle=orthogonalEdgeStyle;rounded=0;orthogonalLoop=1;jettySize=auto;html=1;entryX=0;entryY=0.5;entryDx=0;entryDy=0;" parent="1" source="WMqTVKStwHXneMCG5cs7-1" target="BUD-_ATp-OeyGyNqLpjo-13" edge="1">
          <mxGeometry relative="1" as="geometry" />
        </mxCell>
        <mxCell id="WMqTVKStwHXneMCG5cs7-1" value="Aluno&lt;div&gt;Ator Secundário&lt;/div&gt;" style="shape=umlActor;verticalLabelPosition=bottom;verticalAlign=top;html=1;outlineConnect=0;" parent="1" vertex="1">
          <mxGeometry x="-320" y="520" width="50" height="90" as="geometry" />
        </mxCell>
        <mxCell id="0Htg_YeX03-Z4FgR897Y-6" style="edgeStyle=orthogonalEdgeStyle;rounded=0;orthogonalLoop=1;jettySize=auto;html=1;entryX=1;entryY=0.5;entryDx=0;entryDy=0;" parent="1" source="WMqTVKStwHXneMCG5cs7-2" edge="1">
          <mxGeometry relative="1" as="geometry">
            <mxPoint x="499.99999999998363" y="280" as="targetPoint" />
          </mxGeometry>
        </mxCell>
        <mxCell id="0Htg_YeX03-Z4FgR897Y-9" style="edgeStyle=orthogonalEdgeStyle;rounded=0;orthogonalLoop=1;jettySize=auto;html=1;entryX=1;entryY=0.5;entryDx=0;entryDy=0;" parent="1" source="WMqTVKStwHXneMCG5cs7-2" target="0Htg_YeX03-Z4FgR897Y-7" edge="1">
          <mxGeometry relative="1" as="geometry" />
        </mxCell>
        <mxCell id="0Htg_YeX03-Z4FgR897Y-12" style="edgeStyle=orthogonalEdgeStyle;rounded=0;orthogonalLoop=1;jettySize=auto;html=1;entryX=1;entryY=0.5;entryDx=0;entryDy=0;" parent="1" source="WMqTVKStwHXneMCG5cs7-2" target="0Htg_YeX03-Z4FgR897Y-10" edge="1">
          <mxGeometry relative="1" as="geometry" />
        </mxCell>
        <mxCell id="BUD-_ATp-OeyGyNqLpjo-5" style="edgeStyle=orthogonalEdgeStyle;rounded=0;orthogonalLoop=1;jettySize=auto;html=1;entryX=1;entryY=0.5;entryDx=0;entryDy=0;" parent="1" source="WMqTVKStwHXneMCG5cs7-2" target="BUD-_ATp-OeyGyNqLpjo-1" edge="1">
          <mxGeometry relative="1" as="geometry" />
        </mxCell>
        <mxCell id="BUD-_ATp-OeyGyNqLpjo-6" style="edgeStyle=orthogonalEdgeStyle;rounded=0;orthogonalLoop=1;jettySize=auto;html=1;entryX=1;entryY=0.5;entryDx=0;entryDy=0;" parent="1" source="WMqTVKStwHXneMCG5cs7-2" target="BUD-_ATp-OeyGyNqLpjo-2" edge="1">
          <mxGeometry relative="1" as="geometry" />
        </mxCell>
        <mxCell id="BUD-_ATp-OeyGyNqLpjo-7" style="edgeStyle=orthogonalEdgeStyle;rounded=0;orthogonalLoop=1;jettySize=auto;html=1;entryX=1;entryY=0.5;entryDx=0;entryDy=0;" parent="1" source="WMqTVKStwHXneMCG5cs7-2" target="BUD-_ATp-OeyGyNqLpjo-3" edge="1">
          <mxGeometry relative="1" as="geometry" />
        </mxCell>
        <mxCell id="BUD-_ATp-OeyGyNqLpjo-8" style="edgeStyle=orthogonalEdgeStyle;rounded=0;orthogonalLoop=1;jettySize=auto;html=1;entryX=1;entryY=0.5;entryDx=0;entryDy=0;" parent="1" source="WMqTVKStwHXneMCG5cs7-2" target="BUD-_ATp-OeyGyNqLpjo-4" edge="1">
          <mxGeometry relative="1" as="geometry" />
        </mxCell>
        <mxCell id="WMqTVKStwHXneMCG5cs7-2" value="Treinador&lt;div&gt;Ator Primário&lt;/div&gt;" style="shape=umlActor;verticalLabelPosition=bottom;verticalAlign=top;html=1;" parent="1" vertex="1">
          <mxGeometry x="1030" y="510" width="50" height="90" as="geometry" />
        </mxCell>
        <mxCell id="0Htg_YeX03-Z4FgR897Y-1" value="Login" style="ellipse;whiteSpace=wrap;html=1;fontFamily=Helvetica;" parent="1" vertex="1">
          <mxGeometry x="380" y="240" width="120" height="60" as="geometry" />
        </mxCell>
        <mxCell id="0Htg_YeX03-Z4FgR897Y-7" value="Visualizar gráfico de evolução" style="ellipse;whiteSpace=wrap;html=1;" parent="1" vertex="1">
          <mxGeometry x="380" y="320" width="120" height="60" as="geometry" />
        </mxCell>
        <mxCell id="0Htg_YeX03-Z4FgR897Y-10" value="Visualizar relatório de treino" style="ellipse;whiteSpace=wrap;html=1;" parent="1" vertex="1">
          <mxGeometry x="380" y="400" width="120" height="50" as="geometry" />
        </mxCell>
        <mxCell id="14c5lc484hEMLVAX8z-a-5" style="edgeStyle=orthogonalEdgeStyle;rounded=0;orthogonalLoop=1;jettySize=auto;html=1;entryX=1;entryY=0.5;entryDx=0;entryDy=0;" edge="1" parent="1" source="BUD-_ATp-OeyGyNqLpjo-1" target="14c5lc484hEMLVAX8z-a-4">
          <mxGeometry relative="1" as="geometry" />
        </mxCell>
        <mxCell id="14c5lc484hEMLVAX8z-a-6" value="include&lt;div&gt;&lt;br&gt;&lt;/div&gt;" style="edgeLabel;html=1;align=center;verticalAlign=middle;resizable=0;points=[];" vertex="1" connectable="0" parent="14c5lc484hEMLVAX8z-a-5">
          <mxGeometry x="0.2417" y="-2" relative="1" as="geometry">
            <mxPoint x="-2" y="3" as="offset" />
          </mxGeometry>
        </mxCell>
        <mxCell id="BUD-_ATp-OeyGyNqLpjo-1" value="Manter alunos" style="ellipse;whiteSpace=wrap;html=1;" parent="1" vertex="1">
          <mxGeometry x="530" y="670" width="120" height="50" as="geometry" />
        </mxCell>
        <mxCell id="BUD-_ATp-OeyGyNqLpjo-2" value="Manter treino" style="ellipse;whiteSpace=wrap;html=1;" parent="1" vertex="1">
          <mxGeometry x="530" y="750" width="120" height="50" as="geometry" />
        </mxCell>
        <mxCell id="BUD-_ATp-OeyGyNqLpjo-3" value="Manter dieta" style="ellipse;whiteSpace=wrap;html=1;" parent="1" vertex="1">
          <mxGeometry x="530" y="830" width="120" height="50" as="geometry" />
        </mxCell>
        <mxCell id="BUD-_ATp-OeyGyNqLpjo-4" value="Manter cardio" style="ellipse;whiteSpace=wrap;html=1;" parent="1" vertex="1">
          <mxGeometry x="530" y="900" width="120" height="50" as="geometry" />
        </mxCell>
        <mxCell id="BUD-_ATp-OeyGyNqLpjo-9" value="Definir Objetivo" style="ellipse;whiteSpace=wrap;html=1;" parent="1" vertex="1">
          <mxGeometry x="220" y="710" width="120" height="50" as="geometry" />
        </mxCell>
        <mxCell id="14c5lc484hEMLVAX8z-a-2" style="edgeStyle=orthogonalEdgeStyle;rounded=0;orthogonalLoop=1;jettySize=auto;html=1;exitX=1;exitY=0.5;exitDx=0;exitDy=0;" edge="1" parent="1" source="BUD-_ATp-OeyGyNqLpjo-11" target="14c5lc484hEMLVAX8z-a-1">
          <mxGeometry relative="1" as="geometry" />
        </mxCell>
        <mxCell id="14c5lc484hEMLVAX8z-a-3" value="extends&lt;div&gt;&lt;br&gt;&lt;/div&gt;" style="edgeLabel;html=1;align=center;verticalAlign=middle;resizable=0;points=[];" vertex="1" connectable="0" parent="14c5lc484hEMLVAX8z-a-2">
          <mxGeometry y="-2" relative="1" as="geometry">
            <mxPoint as="offset" />
          </mxGeometry>
        </mxCell>
        <mxCell id="BUD-_ATp-OeyGyNqLpjo-11" value="Visualizar treino" style="ellipse;whiteSpace=wrap;html=1;" parent="1" vertex="1">
          <mxGeometry x="220" y="785" width="120" height="45" as="geometry" />
        </mxCell>
        <mxCell id="BUD-_ATp-OeyGyNqLpjo-12" value="Visualizar dieta" style="ellipse;whiteSpace=wrap;html=1;" parent="1" vertex="1">
          <mxGeometry x="220" y="860" width="120" height="50" as="geometry" />
        </mxCell>
        <mxCell id="BUD-_ATp-OeyGyNqLpjo-13" value="Visualizar cardio" style="ellipse;whiteSpace=wrap;html=1;" parent="1" vertex="1">
          <mxGeometry x="220" y="930" width="120" height="50" as="geometry" />
        </mxCell>
        <mxCell id="BUD-_ATp-OeyGyNqLpjo-14" value="Concluir" style="ellipse;whiteSpace=wrap;html=1;" parent="1" vertex="1">
          <mxGeometry x="220" y="1000" width="120" height="50" as="geometry" />
        </mxCell>
        <mxCell id="BUD-_ATp-OeyGyNqLpjo-15" value="Ficha de treino" style="ellipse;whiteSpace=wrap;html=1;" parent="1" vertex="1">
          <mxGeometry x="220" y="1070" width="120" height="50" as="geometry" />
        </mxCell>
        <mxCell id="BUD-_ATp-OeyGyNqLpjo-18" style="edgeStyle=orthogonalEdgeStyle;rounded=0;orthogonalLoop=1;jettySize=auto;html=1;entryX=0.008;entryY=0.77;entryDx=0;entryDy=0;entryPerimeter=0;" parent="1" source="WMqTVKStwHXneMCG5cs7-1" target="BUD-_ATp-OeyGyNqLpjo-11" edge="1">
          <mxGeometry relative="1" as="geometry" />
        </mxCell>
        <mxCell id="BUD-_ATp-OeyGyNqLpjo-21" style="edgeStyle=orthogonalEdgeStyle;rounded=0;orthogonalLoop=1;jettySize=auto;html=1;entryX=-0.003;entryY=0.687;entryDx=0;entryDy=0;entryPerimeter=0;" parent="1" source="WMqTVKStwHXneMCG5cs7-1" target="BUD-_ATp-OeyGyNqLpjo-14" edge="1">
          <mxGeometry relative="1" as="geometry" />
        </mxCell>
        <mxCell id="BUD-_ATp-OeyGyNqLpjo-22" style="edgeStyle=orthogonalEdgeStyle;rounded=0;orthogonalLoop=1;jettySize=auto;html=1;entryX=0.008;entryY=0.7;entryDx=0;entryDy=0;entryPerimeter=0;" parent="1" source="WMqTVKStwHXneMCG5cs7-1" target="BUD-_ATp-OeyGyNqLpjo-15" edge="1">
          <mxGeometry relative="1" as="geometry" />
        </mxCell>
        <mxCell id="14c5lc484hEMLVAX8z-a-1" value="alterar treino" style="ellipse;whiteSpace=wrap;html=1;" vertex="1" parent="1">
          <mxGeometry x="354" y="690" width="120" height="50" as="geometry" />
        </mxCell>
        <mxCell id="14c5lc484hEMLVAX8z-a-4" value="validar senha&lt;div&gt;&lt;br&gt;&lt;/div&gt;" style="ellipse;whiteSpace=wrap;html=1;" vertex="1" parent="1">
          <mxGeometry x="380" y="600" width="120" height="50" as="geometry" />
        </mxCell>
        <mxCell id="14c5lc484hEMLVAX8z-a-15" value="" style="edgeStyle=orthogonalEdgeStyle;rounded=0;orthogonalLoop=1;jettySize=auto;html=1;" edge="1" parent="1" source="14c5lc484hEMLVAX8z-a-7" target="14c5lc484hEMLVAX8z-a-14">
          <mxGeometry relative="1" as="geometry" />
        </mxCell>
        <mxCell id="14c5lc484hEMLVAX8z-a-24" style="edgeStyle=orthogonalEdgeStyle;rounded=0;orthogonalLoop=1;jettySize=auto;html=1;" edge="1" parent="1" source="14c5lc484hEMLVAX8z-a-7" target="14c5lc484hEMLVAX8z-a-20">
          <mxGeometry relative="1" as="geometry" />
        </mxCell>
        <mxCell id="14c5lc484hEMLVAX8z-a-25" style="edgeStyle=orthogonalEdgeStyle;rounded=0;orthogonalLoop=1;jettySize=auto;html=1;" edge="1" parent="1" source="14c5lc484hEMLVAX8z-a-7" target="14c5lc484hEMLVAX8z-a-21">
          <mxGeometry relative="1" as="geometry" />
        </mxCell>
        <mxCell id="14c5lc484hEMLVAX8z-a-26" style="edgeStyle=orthogonalEdgeStyle;rounded=0;orthogonalLoop=1;jettySize=auto;html=1;" edge="1" parent="1" source="14c5lc484hEMLVAX8z-a-7" target="14c5lc484hEMLVAX8z-a-22">
          <mxGeometry relative="1" as="geometry" />
        </mxCell>
        <mxCell id="14c5lc484hEMLVAX8z-a-7" value="Treinador&lt;br&gt;Ator Primário&lt;div&gt;&lt;br&gt;&lt;/div&gt;" style="shape=umlActor;verticalLabelPosition=bottom;verticalAlign=top;html=1;outlineConnect=0;" vertex="1" parent="1">
          <mxGeometry x="1580" y="20" width="30" height="60" as="geometry" />
        </mxCell>
        <mxCell id="14c5lc484hEMLVAX8z-a-18" value="" style="edgeStyle=orthogonalEdgeStyle;rounded=0;orthogonalLoop=1;jettySize=auto;html=1;" edge="1" parent="1" source="14c5lc484hEMLVAX8z-a-14">
          <mxGeometry relative="1" as="geometry">
            <mxPoint x="1970" y="-100" as="targetPoint" />
          </mxGeometry>
        </mxCell>
        <mxCell id="14c5lc484hEMLVAX8z-a-19" value="Include" style="edgeLabel;html=1;align=center;verticalAlign=middle;resizable=0;points=[];" vertex="1" connectable="0" parent="14c5lc484hEMLVAX8z-a-18">
          <mxGeometry x="0.2318" y="3" relative="1" as="geometry">
            <mxPoint x="1" as="offset" />
          </mxGeometry>
        </mxCell>
        <mxCell id="14c5lc484hEMLVAX8z-a-14" value="CRUD Aluno" style="ellipse;whiteSpace=wrap;html=1;" vertex="1" parent="1">
          <mxGeometry x="1910" y="10" width="120" height="80" as="geometry" />
        </mxCell>
        <mxCell id="14c5lc484hEMLVAX8z-a-17" value="Validar Senha" style="ellipse;whiteSpace=wrap;html=1;" vertex="1" parent="1">
          <mxGeometry x="1910" y="-180" width="120" height="80" as="geometry" />
        </mxCell>
        <mxCell id="14c5lc484hEMLVAX8z-a-36" style="edgeStyle=orthogonalEdgeStyle;rounded=0;orthogonalLoop=1;jettySize=auto;html=1;entryX=1;entryY=0.5;entryDx=0;entryDy=0;" edge="1" parent="1" source="14c5lc484hEMLVAX8z-a-20" target="14c5lc484hEMLVAX8z-a-35">
          <mxGeometry relative="1" as="geometry" />
        </mxCell>
        <mxCell id="14c5lc484hEMLVAX8z-a-37" value="extends" style="edgeLabel;html=1;align=center;verticalAlign=middle;resizable=0;points=[];" vertex="1" connectable="0" parent="14c5lc484hEMLVAX8z-a-36">
          <mxGeometry x="-0.1923" y="-3" relative="1" as="geometry">
            <mxPoint as="offset" />
          </mxGeometry>
        </mxCell>
        <mxCell id="14c5lc484hEMLVAX8z-a-20" value="CRUD Treino" style="ellipse;whiteSpace=wrap;html=1;" vertex="1" parent="1">
          <mxGeometry x="1440" y="100" width="120" height="80" as="geometry" />
        </mxCell>
        <mxCell id="14c5lc484hEMLVAX8z-a-31" value="" style="edgeStyle=orthogonalEdgeStyle;rounded=0;orthogonalLoop=1;jettySize=auto;html=1;" edge="1" parent="1" source="14c5lc484hEMLVAX8z-a-21" target="14c5lc484hEMLVAX8z-a-29">
          <mxGeometry relative="1" as="geometry" />
        </mxCell>
        <mxCell id="14c5lc484hEMLVAX8z-a-32" value="extends&lt;div&gt;&lt;br&gt;&lt;/div&gt;" style="edgeLabel;html=1;align=center;verticalAlign=middle;resizable=0;points=[];" vertex="1" connectable="0" parent="14c5lc484hEMLVAX8z-a-31">
          <mxGeometry x="-0.0333" y="-1" relative="1" as="geometry">
            <mxPoint as="offset" />
          </mxGeometry>
        </mxCell>
        <mxCell id="14c5lc484hEMLVAX8z-a-21" value="CRUD Dieta" style="ellipse;whiteSpace=wrap;html=1;" vertex="1" parent="1">
          <mxGeometry x="1650" y="190" width="120" height="80" as="geometry" />
        </mxCell>
        <mxCell id="14c5lc484hEMLVAX8z-a-33" value="" style="edgeStyle=orthogonalEdgeStyle;rounded=0;orthogonalLoop=1;jettySize=auto;html=1;" edge="1" parent="1" source="14c5lc484hEMLVAX8z-a-22">
          <mxGeometry relative="1" as="geometry">
            <mxPoint x="1994" y="230" as="targetPoint" />
          </mxGeometry>
        </mxCell>
        <mxCell id="14c5lc484hEMLVAX8z-a-34" value="extends" style="edgeLabel;html=1;align=center;verticalAlign=middle;resizable=0;points=[];" vertex="1" connectable="0" parent="14c5lc484hEMLVAX8z-a-33">
          <mxGeometry x="0.131" y="1" relative="1" as="geometry">
            <mxPoint y="-1" as="offset" />
          </mxGeometry>
        </mxCell>
        <mxCell id="14c5lc484hEMLVAX8z-a-22" value="CRUD Cardio" style="ellipse;whiteSpace=wrap;html=1;" vertex="1" parent="1">
          <mxGeometry x="1790" y="190" width="120" height="80" as="geometry" />
        </mxCell>
        <mxCell id="14c5lc484hEMLVAX8z-a-29" value="Alterar Dieta" style="ellipse;whiteSpace=wrap;html=1;" vertex="1" parent="1">
          <mxGeometry x="1650" y="360" width="120" height="80" as="geometry" />
        </mxCell>
        <mxCell id="14c5lc484hEMLVAX8z-a-30" value="Alterar Cardio" style="ellipse;whiteSpace=wrap;html=1;" vertex="1" parent="1">
          <mxGeometry x="1990" y="190" width="120" height="80" as="geometry" />
        </mxCell>
        <mxCell id="14c5lc484hEMLVAX8z-a-35" value="Alterar Treino" style="ellipse;whiteSpace=wrap;html=1;" vertex="1" parent="1">
          <mxGeometry x="1190" y="100" width="120" height="80" as="geometry" />
        </mxCell>
        <mxCell id="14c5lc484hEMLVAX8z-a-38" value="Aluno&amp;nbsp;&lt;div&gt;Ator Secundário&lt;/div&gt;" style="shape=umlActor;verticalLabelPosition=bottom;verticalAlign=top;html=1;outlineConnect=0;" vertex="1" parent="1">
          <mxGeometry x="2300" y="80" width="30" height="60" as="geometry" />
        </mxCell>
      </root>
    </mxGraphModel>
  </diagram>
</mxfile>
